<svg width="74" height="21" viewBox="0 0 74 21" fill="none" xmlns="http://www.w3.org/2000/svg">
<path d="M6.78477 20.5204C5.47972 20.5204 4.31556 20.246 3.29228 19.6973C2.269 19.1486 1.46076 18.3997 0.86756 17.4506C0.289187 16.4866 0 15.3966 0 14.1805V3.68082H3.448V13.9581C3.448 14.6106 3.58888 15.2038 3.87065 15.7377C4.16726 16.2567 4.56767 16.6646 5.07189 16.9612C5.57611 17.2578 6.14707 17.4061 6.78477 17.4061C7.43729 17.4061 8.00825 17.2578 8.49764 16.9612C9.00187 16.6646 9.39486 16.2567 9.67664 15.7377C9.97324 15.2038 10.1215 14.6106 10.1215 13.9581V3.68082H13.5695V14.1805C13.5695 15.3966 13.2729 16.4866 12.6797 17.4506C12.1014 18.3997 11.3005 19.1486 10.2773 19.6973C9.25398 20.246 8.08982 20.5204 6.78477 20.5204Z" fill="#1D2A44"/>
<path d="M15.2864 20.2534V3.68082H18.6231L24.8295 11.9115H23.2724L29.3008 3.68082H32.6376V20.2534H29.1896V7.48474L30.5688 7.79617L24.1844 16.0269H23.7395L17.5776 7.79617L18.7344 7.48474V20.2534H15.2864Z" fill="#1D2A44"/>
<path d="M33.3417 20.2534L38.9475 3.68082H43.53L49.1358 20.2534H45.3764L44.2641 16.8722L41.2367 7.47492L38.1912 16.8722L37.0789 20.2534H33.3417ZM39.1477 13.8691L41.2367 7.47492L43.3076 13.8691L40.7716 6.0388H41.7059L39.1477 13.8691Z" fill="#1D2A44"/>
<path d="M49.8469 20.2534V3.68082H53.2949V10.8438H59.746V3.68082H63.194V20.2534H59.746V13.8468H53.2949V20.2534H49.8469Z" fill="#1D2A44"/>
<path d="M67.6975 14.5896L69.1895 1.30981L73.6724 0L70.8259 14.5896H67.6975ZM68.7255 20.5204C67.645 20.5204 66.8109 19.5702 66.9509 18.4989L66.9886 18.2103C67.105 17.3191 67.8644 16.6525 68.7632 16.6525C69.8436 16.6525 70.6777 17.6026 70.5377 18.674L70.5 18.9626C70.3836 19.8538 69.6242 20.5204 68.7255 20.5204Z" fill="#FE7E00"/>
</svg>
