<svg width="17" height="17" viewBox="0 0 17 17" fill="none" xmlns="http://www.w3.org/2000/svg">
<g clip-path="url(#clip0_185_130)">
<path d="M9.41625 1.55137e-06C9.66615 1.55137e-06 9.8897 0.155552 9.97385 0.388452L10.5739 2.0519C10.789 2.10545 10.9734 2.159 11.1298 2.2151C11.3007 2.2763 11.5208 2.36895 11.7928 2.4956L13.1902 1.7561C13.3043 1.69567 13.4349 1.67386 13.5624 1.69394C13.6899 1.71401 13.8075 1.7749 13.8974 1.86745L15.1265 3.1382C15.2897 3.30735 15.3356 3.5547 15.2438 3.7706L14.5885 5.30655C14.6973 5.5063 14.784 5.67715 14.8503 5.81995C14.9217 5.9755 15.0101 6.1897 15.1155 6.46595L16.6429 7.12045C16.8724 7.2182 17.0144 7.4477 16.9991 7.69335L16.8869 9.4571C16.8792 9.57169 16.8381 9.6815 16.7686 9.77291C16.6991 9.86433 16.6043 9.93333 16.4959 9.97135L15.0492 10.4856C15.0075 10.6854 14.9642 10.8562 14.9183 11.0007C14.8443 11.2239 14.7597 11.4434 14.665 11.6586L15.3917 13.2651C15.443 13.378 15.4568 13.5043 15.4312 13.6256C15.4055 13.7469 15.3416 13.8568 15.2489 13.9392L13.8668 15.1734C13.7758 15.2543 13.6622 15.3055 13.5413 15.3201C13.4204 15.3346 13.2979 15.3119 13.1902 15.255L11.7656 14.5002C11.5428 14.6182 11.3128 14.7223 11.0771 14.8121L10.4549 15.045L9.90245 16.575C9.86151 16.687 9.78765 16.7841 9.69057 16.8534C9.59348 16.9227 9.47771 16.9611 9.35845 16.9635L7.74345 17C7.62101 17.0032 7.5006 16.9684 7.39876 16.9004C7.29693 16.8323 7.21868 16.7344 7.1748 16.6201L6.5237 14.8971C6.30155 14.8212 6.08159 14.739 5.8641 14.6506C5.6862 14.5736 5.511 14.4905 5.3388 14.4016L3.7238 15.0918C3.61738 15.1371 3.50007 15.1506 3.38613 15.1306C3.27219 15.1105 3.16654 15.0577 3.08205 14.9787L1.88695 13.8576C1.79797 13.7744 1.73737 13.6655 1.71373 13.546C1.69009 13.4266 1.70459 13.3027 1.7552 13.192L2.44965 11.679C2.35729 11.4998 2.27166 11.3172 2.19295 11.1316C2.10106 10.9044 2.01602 10.6745 1.93795 10.4423L0.416446 9.979C0.292772 9.94162 0.184901 9.86445 0.109587 9.75947C0.0342735 9.65449 -0.00426882 9.52758 -5.38622e-05 9.39845L0.0594461 7.7656C0.0636813 7.65906 0.0969623 7.55571 0.15569 7.46672C0.214418 7.37773 0.296357 7.30649 0.392646 7.2607L1.98895 6.494C2.0629 6.22285 2.1275 6.01205 2.18445 5.8582C2.26464 5.65271 2.35369 5.45079 2.45135 5.253L1.75945 3.791C1.70694 3.67998 1.69099 3.55516 1.7139 3.4345C1.73681 3.31384 1.7974 3.20355 1.88695 3.1195L3.08035 1.9924C3.164 1.9135 3.26868 1.86045 3.38178 1.83964C3.49488 1.81883 3.61158 1.83114 3.71785 1.8751L5.33115 2.5415C5.50965 2.4225 5.67115 2.32645 5.81735 2.2491C5.9916 2.15645 6.2245 2.05955 6.51775 1.955L7.07875 0.390152C7.12022 0.27563 7.19603 0.176701 7.29583 0.106873C7.39563 0.0370453 7.51455 -0.000277313 7.63635 1.55137e-06H9.41625ZM8.99975 1.17045H8.0537L7.53945 2.61035C7.50921 2.69431 7.46029 2.7703 7.39638 2.83259C7.33248 2.89488 7.25525 2.94183 7.17055 2.9699C6.79995 3.09315 6.5322 3.1994 6.3758 3.28185C6.21005 3.3694 5.9984 3.50285 5.7468 3.68135C5.66445 3.73914 5.56884 3.77521 5.46884 3.7862C5.36884 3.7972 5.26768 3.78277 5.17475 3.74425L3.61925 3.1025L3.0132 3.6754L3.64475 5.0099C3.68256 5.0893 3.70175 5.17628 3.70087 5.26422C3.69998 5.35215 3.67904 5.43873 3.63965 5.51735C3.46965 5.8582 3.3549 6.1098 3.2971 6.2645C3.20846 6.52203 3.13188 6.78354 3.0676 7.0482C3.04624 7.13104 3.00702 7.2082 2.95269 7.27427C2.89837 7.34035 2.83024 7.39374 2.7531 7.4307L1.2316 8.16085L1.201 8.99385L2.578 9.41205C2.76075 9.4673 2.90525 9.60755 2.9656 9.78775C3.1016 10.1958 3.2104 10.4967 3.2886 10.6854C3.39221 10.9248 3.5068 11.1594 3.632 11.3883C3.67435 11.4671 3.69785 11.5546 3.70066 11.644C3.70346 11.7333 3.68548 11.8221 3.64815 11.9034L3.0098 13.2957L3.61415 13.8635L5.12885 13.2158C5.21044 13.1809 5.29877 13.1647 5.38742 13.1682C5.47608 13.1717 5.56284 13.195 5.6414 13.2362C5.95165 13.3994 6.18285 13.5125 6.32905 13.5745C6.4778 13.6366 6.76255 13.7403 7.17565 13.8814C7.25766 13.9094 7.33248 13.9551 7.39477 14.0153C7.45707 14.0756 7.50531 14.1488 7.53605 14.2299L8.13785 15.8202L8.92495 15.8032L9.4324 14.3973C9.46142 14.3171 9.50755 14.2441 9.56758 14.1835C9.62761 14.1229 9.70011 14.0761 9.78005 14.0463L10.6615 13.7165C10.8842 13.634 11.1545 13.504 11.4698 13.3255C11.5571 13.2764 11.6553 13.2501 11.7554 13.2489C11.8555 13.2477 11.9543 13.2717 12.0427 13.3187L13.3832 14.0284L14.1371 13.3561L13.4775 11.9C13.4437 11.8253 13.4261 11.7442 13.4259 11.6621C13.4258 11.58 13.4431 11.4989 13.4767 11.424C13.6314 11.0781 13.7359 10.8171 13.7886 10.6505C13.8405 10.4873 13.894 10.2519 13.9459 9.94925C13.9637 9.84647 14.0087 9.7503 14.076 9.67066C14.1434 9.59102 14.2308 9.5308 14.3292 9.4962L15.73 8.99895L15.7912 8.02995L14.4142 7.44005C14.3409 7.40884 14.2747 7.36307 14.2196 7.3055C14.1646 7.24793 14.1217 7.17977 14.0938 7.10515C13.9956 6.83421 13.8884 6.56659 13.7725 6.30275C13.6627 6.07302 13.5436 5.84787 13.4155 5.62785C13.3711 5.55012 13.3453 5.46316 13.3402 5.37379C13.335 5.28443 13.3506 5.19508 13.3857 5.11275L14.002 3.66775L13.3526 2.99625L12.0878 3.66605C12.0052 3.70985 11.9135 3.73366 11.8201 3.73558C11.7266 3.7375 11.634 3.71747 11.5497 3.6771C11.2813 3.54362 11.0067 3.42279 10.7269 3.315C10.4884 3.23489 10.2451 3.1696 9.9985 3.1195C9.90064 3.09875 9.80968 3.05347 9.73414 2.98789C9.65861 2.92232 9.60099 2.83862 9.5667 2.74465L8.9989 1.1696L8.99975 1.17045ZM8.52035 4.79485C10.5901 4.79485 12.2688 6.4549 12.2688 8.5017C12.2688 10.5485 10.5901 12.2077 8.52035 12.2077C6.44975 12.2077 4.77185 10.5485 4.77185 8.5017C4.77185 6.4549 6.44975 4.7957 8.52035 4.7957V4.79485ZM8.52035 5.96615C7.1034 5.96615 5.95505 7.1009 5.95505 8.5017C5.95505 9.9025 7.1034 11.0381 8.52035 11.0381C9.93645 11.0381 11.0848 9.9025 11.0848 8.5017C11.0848 7.1009 9.9373 5.96615 8.52035 5.96615Z" fill="black"/>
</g>
<defs>
<clipPath id="clip0_185_130">
<rect width="17" height="17" fill="white"/>
</clipPath>
</defs>
</svg>
